<?xml version="1.0" encoding="UTF-8" standalone="no"?>
<!-- Created with Inkscape (http://www.inkscape.org/) -->

<svg
   version="1.1"
   id="svg16"
   width="670"
   height="290"
   viewBox="0 0 670 290"
   sodipodi:docname="logoOrangeM.svg"
   inkscape:version="1.1.2 (b8e25be833, 2022-02-05)"
   inkscape:export-filename="C:\KB\Training\Projects\mapGame\images\logoWarningM.png"
   inkscape:export-xdpi="96"
   inkscape:export-ydpi="96"
   xmlns:inkscape="http://www.inkscape.org/namespaces/inkscape"
   xmlns:sodipodi="http://sodipodi.sourceforge.net/DTD/sodipodi-0.dtd"
   xmlns="http://www.w3.org/2000/svg"
   xmlns:svg="http://www.w3.org/2000/svg">
  <defs
     id="defs20">
    <rect
       x="302.68768"
       y="93.044067"
       width="426.35385"
       height="161.3549"
       id="rect24878" />
    <rect
       x="24.757374"
       y="6.0630302"
       width="45.641144"
       height="41.767544"
       id="rect16492" />
  </defs>
  <sodipodi:namedview
     id="namedview18"
     pagecolor="#ffffff"
     bordercolor="#666666"
     borderopacity="1.0"
     inkscape:pageshadow="2"
     inkscape:pageopacity="0.0"
     inkscape:pagecheckerboard="0"
     showgrid="false"
     inkscape:zoom="0.84906002"
     inkscape:cx="375.7096"
     inkscape:cy="73.021928"
     inkscape:window-width="1678"
     inkscape:window-height="974"
     inkscape:window-x="230"
     inkscape:window-y="0"
     inkscape:window-maximized="0"
     inkscape:current-layer="g22" />
  <g
     inkscape:groupmode="layer"
     inkscape:label="Image"
     id="g22">
    <path
       style="fill:#ffc107;stroke-width:0.790422;fill-opacity:1"
       d="M 127.38092,273.07345 C 98.13468,269.67351 70.379343,256.19262 49.38079,235.18842 13.958596,199.75668 1.6736337,147.85142 17.572027,100.79308 30.909227,61.31573 61.310553,30.90621 100.77727,17.565413 147.793,1.6728458 199.73672,13.973545 235.13638,49.382755 c 51.50685,51.520725 51.51526,134.314245 0.0186,185.824525 -21.3544,21.36016 -48.47697,34.41318 -78.70303,37.87667 -8.04173,0.92143 -21.09495,0.91677 -29.07128,-0.0103 z M 96.186883,223.90746 c 0.08887,-0.10913 0.355638,-27.76091 0.59273,-61.44937 l 0.431102,-61.25175 14.980095,61.44938 14.9801,61.44938 h 15.24939 c 8.38718,0 15.26497,-0.0892 15.28399,-0.19763 0.0195,-0.10913 6.93181,-27.76724 15.36172,-61.46345 l 15.32714,-61.26582 0.0503,20.55369 c 0.0282,11.30453 0.28583,38.9631 0.57384,61.46346 l 0.52352,40.90975 h 14.4916 14.49159 V 144.65718 65.20923 h -24.01799 -24.01798 l -1.62738,6.126582 c -0.89511,3.369621 -6.99171,26.937201 -13.54811,52.372408 -6.5564,25.43519 -12.17568,46.87489 -12.48728,47.64378 -0.35588,0.87817 -5.74316,-18.52018 -14.4898,-52.17477 L 114.41205,65.604495 90.597836,65.395279 66.783631,65.186063 v 79.459537 79.45952 h 14.6208 c 8.041443,0 14.693544,-0.0892 14.782449,-0.19763 z"
       id="path290"
       inkscape:export-filename="C:\KB\Training\Projects\mapGame\images\logoWarningM.png"
       inkscape:export-xdpi="96"
       inkscape:export-ydpi="96" />
    <path
       style="fill:#000000;stroke-width:0.0618472"
       id="path106"
       d="" />
    <text
       xml:space="preserve"
       id="text16490"
       style="font-style:normal;font-weight:normal;font-size:40px;line-height:1.25;font-family:sans-serif;white-space:pre;shape-inside:url(#rect16492);fill:#000000;fill-opacity:1;stroke:none"><tspan
         x="24.757812"
         y="84.323291"
         id="tspan45539"><tspan
           dx="0 24.023438 24.921875 24.824219"
           id="tspan45537">appy</tspan></tspan></text>
    <text
       xml:space="preserve"
       id="text24876"
       style="font-style:normal;font-weight:normal;font-size:96px;line-height:1.25;font-family:sans-serif;white-space:pre;shape-inside:url(#rect24878);fill:#000000;fill-opacity:1;stroke:none"
       transform="matrix(1.4795533,0,0,1.8979235,-174.17676,-119.46543)"><tspan
         x="302.6875"
         y="180.62863"
         id="tspan45543"><tspan
           style="font-weight:bold;-inkscape-font-specification:'sans-serif Bold'"
           id="tspan45541">appy</tspan></tspan></text>
  </g>
</svg>
