<?xml version="1.0" encoding="UTF-8" standalone="no"?>
<!-- Created with Inkscape (http://www.inkscape.org/) -->

<svg
   version="1.1"
   id="svg16"
   width="24"
   height="24"
   viewBox="0 0 24 24"
   sodipodi:docname="placePin.svg"
   inkscape:version="1.1.2 (b8e25be833, 2022-02-05)"
   xmlns:inkscape="http://www.inkscape.org/namespaces/inkscape"
   xmlns:sodipodi="http://sodipodi.sourceforge.net/DTD/sodipodi-0.dtd"
   xmlns="http://www.w3.org/2000/svg"
   xmlns:svg="http://www.w3.org/2000/svg">
  <defs
     id="defs20" />
  <sodipodi:namedview
     id="namedview18"
     pagecolor="#ffffff"
     bordercolor="#666666"
     borderopacity="1.0"
     inkscape:pageshadow="2"
     inkscape:pageopacity="0.0"
     inkscape:pagecheckerboard="0"
     showgrid="false"
     inkscape:zoom="25.427762"
     inkscape:cx="11.562166"
     inkscape:cy="9.9104277"
     inkscape:window-width="1920"
     inkscape:window-height="986"
     inkscape:window-x="-11"
     inkscape:window-y="-11"
     inkscape:window-maximized="1"
     inkscape:current-layer="g22" />
  <g
     inkscape:groupmode="layer"
     inkscape:label="Image"
     id="g22">
    <path
       style="fill:#000000;stroke-width:0.0618472"
       id="path106"
       d="" />
    <path
       id="path305"
       style="stroke-width:1.10158"
       d="M 12.408203 0.98242188 A 4.3063169 4.6209335 0 0 0 8.1015625 5.6035156 A 4.3063169 4.6209335 0 0 0 9.2382812 8.7226562 L 12.244141 14.019531 L 15.429688 8.8789062 A 4.3063169 4.6209335 0 0 0 16.712891 5.6035156 A 4.3063169 4.6209335 0 0 0 12.408203 0.98242188 z M 12.453125 3.1855469 A 2.2288775 2.3748119 0 0 1 14.681641 5.5605469 A 2.2288775 2.3748119 0 0 1 12.453125 7.9355469 A 2.2288775 2.3748119 0 0 1 10.224609 5.5605469 A 2.2288775 2.3748119 0 0 1 12.453125 3.1855469 z M 11.693359 14.017578 L 11.693359 23.794922 L 11.693359 14.017578 z " />
  </g>
</svg>
